<?xml version="1.0" encoding="UTF-8"?>
<svg xmlns="http://www.w3.org/2000/svg" xmlns:xlink="http://www.w3.org/1999/xlink" width="24px" height="24px" viewBox="0 0 24 24" version="1.1">
<g id="surface1">
<path style=" stroke:none;fill-rule:nonzero;fill:rgb(0%,0%,0%);fill-opacity:1;" d="M 6.75 13.5 L 8.25 13.5 L 8.25 15 L 6.75 15 Z M 6.75 13.5 "/>
<path style=" stroke:none;fill-rule:nonzero;fill:rgb(0%,0%,0%);fill-opacity:1;" d="M 9.75 13.5 L 11.25 13.5 L 11.25 15 L 9.75 15 Z M 9.75 13.5 "/>
<path style=" stroke:none;fill-rule:nonzero;fill:rgb(0%,0%,0%);fill-opacity:1;" d="M 12.75 13.5 L 14.25 13.5 L 14.25 15 L 12.75 15 Z M 12.75 13.5 "/>
<path style=" stroke:none;fill-rule:nonzero;fill:rgb(0%,0%,0%);fill-opacity:1;" d="M 15.75 16.5 L 17.25 16.5 L 17.25 18 L 15.75 18 Z M 15.75 16.5 "/>
<path style=" stroke:none;fill-rule:nonzero;fill:rgb(0%,0%,0%);fill-opacity:1;" d="M 6.75 16.5 L 8.25 16.5 L 8.25 18 L 6.75 18 Z M 6.75 16.5 "/>
<path style=" stroke:none;fill-rule:nonzero;fill:rgb(0%,0%,0%);fill-opacity:1;" d="M 9.75 16.5 L 11.25 16.5 L 11.25 18 L 9.75 18 Z M 9.75 16.5 "/>
<path style=" stroke:none;fill-rule:nonzero;fill:rgb(0%,0%,0%);fill-opacity:1;" d="M 12.75 16.5 L 14.25 16.5 L 14.25 18 L 12.75 18 Z M 12.75 16.5 "/>
<path style=" stroke:none;fill-rule:nonzero;fill:rgb(0%,0%,0%);fill-opacity:1;" d="M 15.75 13.5 L 17.25 13.5 L 17.25 15 L 15.75 15 Z M 15.75 13.5 "/>
<path style=" stroke:none;fill-rule:nonzero;fill:rgb(0%,0%,0%);fill-opacity:1;" d="M 17.25 3 L 17.25 1.5 L 15.75 1.5 L 15.75 3 L 8.25 3 L 8.25 1.5 L 6.75 1.5 L 6.75 3 L 2.25 3 L 2.25 22.5 L 21.75 22.5 L 21.75 3 Z M 20.25 21 L 3.75 21 L 3.75 10.5 L 20.25 10.5 Z M 20.25 9 L 3.75 9 L 3.75 4.5 L 6.75 4.5 L 6.75 6 L 8.25 6 L 8.25 4.5 L 15.75 4.5 L 15.75 6 L 17.25 6 L 17.25 4.5 L 20.25 4.5 Z M 20.25 9 "/>
</g>
</svg>
