<?xml version="1.0" encoding="UTF-8"?>
<svg xmlns="http://www.w3.org/2000/svg" xmlns:xlink="http://www.w3.org/1999/xlink" width="24px" height="24px" viewBox="0 0 24 24" version="1.1">
<g id="surface1">
<path style=" stroke:none;fill-rule:nonzero;fill:rgb(12.941177%,12.941177%,12.941177%);fill-opacity:1;" d="M 17.5 12 C 20.539062 12 23 14.460938 23 17.5 C 23 20.539062 20.539062 23 17.5 23 C 14.460938 23 12 20.539062 12 17.5 C 12 14.460938 14.460938 12 17.5 12 Z M 15.023438 15.023438 C 14.828125 15.21875 14.828125 15.535156 15.023438 15.730469 L 16.792969 17.5 L 15.027344 19.265625 C 14.832031 19.460938 14.832031 19.78125 15.027344 19.972656 C 15.222656 20.167969 15.539062 20.167969 15.734375 19.972656 L 17.5 18.207031 L 19.269531 19.976562 C 19.464844 20.171875 19.78125 20.171875 19.976562 19.976562 C 20.171875 19.78125 20.171875 19.464844 19.976562 19.269531 L 18.207031 17.5 L 19.980469 15.730469 C 20.175781 15.535156 20.175781 15.21875 19.980469 15.023438 C 19.785156 14.828125 19.46875 14.828125 19.273438 15.023438 L 17.5 16.792969 L 15.730469 15.023438 C 15.535156 14.828125 15.21875 14.828125 15.023438 15.023438 Z M 17.75 3 C 19.546875 3 21 4.453125 21 6.25 L 21 12.023438 C 20.539062 11.726562 20.035156 11.484375 19.5 11.3125 L 19.5 8.5 L 4.5 8.5 L 4.5 17.75 C 4.5 18.714844 5.285156 19.5 6.25 19.5 L 11.3125 19.5 C 11.484375 20.035156 11.726562 20.539062 12.023438 21 L 6.25 21 C 4.453125 21 3 19.546875 3 17.75 L 3 6.25 C 3 4.453125 4.453125 3 6.25 3 Z M 17.75 4.5 L 6.25 4.5 C 5.285156 4.5 4.5 5.285156 4.5 6.25 L 4.5 7 L 19.5 7 L 19.5 6.25 C 19.5 5.285156 18.714844 4.5 17.75 4.5 Z M 17.75 4.5 "/>
</g>
</svg>
