<svg width="1094" height="1095" viewBox="0 0 1094 1095" fill="none" xmlns="http://www.w3.org/2000/svg">
<rect width="1093.33" height="1094.67" fill="white"/>
<path d="M103.067 30.9336C97.4666 34.5336 80.2666 49.7336 61.0666 68.2669C53.4666 75.6002 57.0666 79.3336 78.1333 85.8669C86.7999 88.6669 98.5333 92.4002 104 94.1336C109.467 96.0002 120.667 99.3336 128.667 101.467C136.8 103.734 143.867 106 144.4 106.667C146.933 109.067 146.667 124 144.133 133.067C142.667 138 139.6 150.934 137.2 162C134.8 172.934 132 183.067 130.8 184.4C128.267 187.467 125.6 186.8 109.333 179.334C102.267 176 91.7333 171.867 85.9999 170.134C80.1333 168.4 72.9333 166 69.9999 164.667C60.5333 160.534 42.1333 154.4 38.6666 154.267C35.8666 154 35.1999 154.8 34.1333 158.8C33.0666 163.067 33.4666 164.534 37.0666 170.4C39.3333 174 41.9999 179.734 43.1999 183.2C44.3999 186.534 47.4666 192.267 50.1333 196C52.7999 199.734 56.3999 206.934 58.1333 212.134C63.8666 229.067 66.6666 231.334 92.2666 239.467C100.533 242.134 114.933 247.867 124.267 252.134C133.467 256.534 142.4 260 144 260C145.6 260 148.133 258.534 149.6 256.667C151.067 254.8 152.8 253.334 153.733 253.334C155.733 253.334 171.2 244.134 187.867 233.067C195.467 227.867 203.333 223.2 205.2 222.534C209.6 220.934 228.133 225.6 242.267 231.867C247.467 234.134 252.533 236 253.6 236C255.067 236 255.333 243.067 254.933 274.4C254.533 323.467 252.933 352.934 250 364.667C248.267 371.2 247.467 380.667 247.2 396.667C246.933 409.067 246.267 431.2 245.467 445.867C244.533 464.134 244.667 473.2 245.6 475.334C246.4 477.2 249.467 479.334 252.933 480.667C259.467 483.2 271.867 492.934 286 506.534C291.2 511.6 299.467 518.267 304.667 521.334C320 530.667 354 559.334 376.133 581.6C380.4 585.867 385.467 589.6 387.6 590.134C392.8 591.334 403.067 599.2 422.133 616.667C431.067 624.667 441.467 634 445.2 637.334L452 643.334L453.333 679.067C454.133 698.8 454.267 715.6 453.733 716.4C453.2 717.2 452.667 723.867 452.4 731.2C452.133 738.667 451.6 749.467 450.933 755.334C450.4 761.2 450.4 771.334 450.933 778C453.333 810 453.6 825.467 452.133 843.2C451.333 853.6 450.267 880 450 902C448.267 1012.93 448.267 1012 445.333 1028C443.733 1036.4 442.133 1046.13 441.733 1049.6C441.067 1055.87 441.067 1056 445.733 1058C452.8 1060.93 457.733 1060.53 461.2 1056.8C463.467 1054.4 464.133 1052.53 463.467 1050.13C463.067 1048.4 464.267 1039.73 466.133 1031.07C469.333 1016.67 469.467 1013.87 468.533 998.667C468 989.467 467.733 966.4 467.867 947.334C468.133 928.267 467.6 907.867 466.8 902C463.733 878.267 464.533 829.867 469.333 750.134C470.8 725.2 472 693.867 472 680.4C472 667.067 472.4 656 472.8 656C473.2 656 476.933 659.067 481.067 662.667C495.2 675.2 494.133 675.067 539.333 673.867C576 673.067 578.667 672.8 578.667 670.534C578.667 669.2 578 667.734 577.333 667.334C574.533 665.6 577.733 664 583.867 664C591.067 664 592 663.467 591.067 660.134C590.533 658.267 587.333 656.934 576.933 654.667C565.6 652.134 558 651.6 530.533 650.934L497.733 650.4L490.267 644.134C486.133 640.8 480 635.867 476.4 633.334C472.933 630.8 464.667 624.4 458 619.2C451.467 614 442.267 607.2 437.6 604.134C433.067 601.067 423.733 593.334 416.933 586.8C410.267 580.4 400.133 571.867 394.667 568C384.133 560.534 373.2 551.734 365.333 544.267C362.8 541.867 354 535.467 345.867 530C337.733 524.667 329.067 518.267 326.667 515.734C324.267 513.334 318 508 312.667 504C277.733 477.467 277.867 477.6 273.2 465.734C270.8 459.734 270 454.667 269.6 442.667C268.533 412.934 268.8 397.734 270.267 376.667C271.2 364.934 272.133 324.934 272.533 287.734C272.933 242.267 273.6 219.334 274.533 217.467C275.467 215.867 278 214.4 281.067 213.867C283.733 213.467 291.733 211.6 298.667 210C305.6 208.267 311.733 207.334 312.4 207.867C312.933 208.4 312.4 211.467 311.333 214.8C310.133 218 309.6 222 310 223.6C310.933 227.734 316.933 227.6 339.2 223.334C348.533 221.467 362.4 219.334 369.867 218.667C382.667 217.334 386.933 216.667 402.667 213.2C408.4 212 409.333 211.334 409.333 208.534C409.333 204.534 407.867 204.534 391.6 207.867C384.933 209.334 374.8 210.8 369.333 211.334C354.667 212.534 333.6 215.867 326.267 218.267C322.667 219.334 319.6 220 319.2 219.734C317.867 218.267 323.2 206.4 326 204.534C328 203.334 334.667 202 343.6 201.334C351.467 200.667 361.333 199.6 365.333 198.934C369.333 198.134 381.333 197.2 392 196.667C402.8 196.134 415.733 194.667 421.333 193.334C426.8 192 433.867 190.534 436.8 190C442.133 189.2 442.4 189.334 444 193.6C446.533 200.534 454.667 233.6 454.667 236.934C454.667 238.8 452.8 241.334 449.867 243.6C443.2 248.667 436.667 255.467 430.667 263.334C428 266.934 424.267 271.2 422.667 272.667C420.933 274.134 417.6 278.267 415.333 282C410.533 289.334 380 320.134 373.333 324.4L369.067 327.067L349.333 323.467C338.4 321.334 328.8 320.134 328.133 320.667C327.333 321.067 326.667 322.667 326.667 324.134C326.667 328.534 342 334.8 358.667 337.2L372.667 339.334L372.8 352C372.933 362.134 373.867 367.2 377.2 377.334C379.467 384.267 381.333 390.667 381.333 391.467C381.333 392.8 373.2 403.6 358.8 421.467C351.6 430.4 347.333 438.934 348.533 442C349.2 444 350.533 443.334 356.4 437.867C360.267 434.267 367.333 428 372 424C381.067 416.134 382.8 414.4 386.4 409.734C387.6 408 392.8 405.2 398 403.334L407.333 400L412.933 402.667C416 404.134 422.533 407.734 427.2 410.667C432 413.6 440.267 418.134 445.6 420.8C459.333 427.734 485.733 444.267 529.6 473.2C562 494.534 577.2 509.2 584.667 526.134C587.2 531.734 587.6 533.867 586.533 539.067C586 542.4 585.2 551.334 585.067 558.934C584.667 570.8 584.933 572.667 586.8 573.067C588.267 573.334 589.6 572.134 590.4 569.734C591.6 566.667 591.867 566.4 591.867 568.8C592 572.934 595.467 575.467 598 573.334C599.067 572.4 600 571.067 600 570.267C600 569.467 601.2 567.6 602.533 566.134C604.667 563.867 605.333 560.4 606 548C606.8 534.4 606.667 531.734 604.133 524.4C602.533 519.867 601.333 515.067 601.333 514C601.333 509.734 593.067 500 585.6 495.2C579.6 491.334 558.533 475.6 549.867 468.534C548.933 467.734 548.4 466 548.8 464.534C549.333 462.667 545.733 458.267 534.533 447.334C520.667 433.867 508 418.667 508 415.867C508 412.134 513.067 416.4 525.467 430.934C533.067 440 545.333 453.6 552.667 461.334C560 469.067 569.2 478.934 573.2 483.067C577.067 487.2 580.8 490.267 581.467 489.867C584.533 488 582 483.334 573.2 475.067C562.4 464.667 537.6 437.467 524.8 422.134C518.667 414.667 516.533 411.2 517.733 410.4C519.867 409.067 524.4 413.6 540.667 433.334C563.067 460.667 570.667 468.267 574.267 467.6C576.533 467.2 578.933 468.534 583.6 472.8C589.867 478.667 592.533 479.867 594 477.334C594.933 475.734 591.867 470.667 589.733 470.667C588.133 470.667 556 432.934 556 431.067C556 430.534 562.533 436.667 570.4 444.667C589.733 464.667 602.667 476.134 605.2 475.734C608.933 474.934 608.533 470.8 604.533 469.334C600.267 467.734 564 431.867 564 429.334C564 427.067 572.267 428.667 580.8 432.8C584.533 434.534 589.2 436 591.067 436C593.733 436 596.933 438.8 605.467 448.267C628.667 474.4 639.067 485.067 641.467 485.734C647.067 487.2 643.333 481.6 626.4 463.2C616.667 452.534 606.267 441.2 603.467 438L598.267 432L602.133 427.867C604.267 425.6 607.733 422.534 609.867 421.067C615.067 417.2 616.267 419.6 615.333 431.6C614.4 441.067 614.533 441.467 618.933 446.934C629.467 460.667 655.067 484 659.2 484C662.533 484 661.733 481.6 656.667 476.267C654 473.6 650.267 469.2 648.267 466.534C642.933 459.467 634.667 449.6 629.067 443.2C621.067 434.4 623.2 434.534 631.733 443.334C635.867 447.734 642.933 454.667 647.467 458.667C651.867 462.667 656.933 468 658.667 470.534C662.4 475.6 675.2 484.8 680.533 486.134C683.467 486.8 684 486.534 684 484.134C684 482.534 683.2 481.334 681.867 481.334C680.8 481.334 674.667 476.267 668.267 470.134C661.867 464 653.733 456.534 650 453.6C642 447.2 632.533 437.6 633.467 436.8C635.2 434.934 656.533 451.867 675.867 470.4C681.467 475.734 688 481.2 690.4 482.667C692.667 484.134 694.667 486.134 694.667 487.067C694.667 489.867 704.667 500.667 710.4 504.134C713.067 505.867 718 509.467 721.333 512.267C724.667 515.067 732.4 519.867 738.4 523.2C747.733 528.267 749.6 528.8 751.6 527.334C753.867 525.6 753.867 525.467 751.333 522.667C749.867 520.934 739.467 512.8 728.4 504.4C717.2 496 705.733 486.534 702.8 483.2C699.733 479.6 696.533 477.334 694.8 477.334C691.867 477.334 684 470 684 467.2C684 466.4 681.6 464.667 678.8 463.334C676 462.134 670.667 458.4 667.2 455.2C661.733 450.4 661.067 449.2 662.667 448C665.733 445.867 667.067 446.667 678.933 458C691.067 469.467 696 472.8 699.2 471.6C703.067 470.134 701.333 466.934 694.4 462.534C686.4 457.6 673.333 445.6 673.333 443.2C673.333 442.267 674.4 441.2 675.733 440.667C677.333 440 679.467 441.334 683.333 445.6C688.267 451.067 697.6 458.667 699.2 458.667C699.6 458.667 702.533 460.534 705.867 462.8C711.467 466.8 714.667 467.067 714.667 463.467C714.667 461.467 712.933 460.134 698.4 450.8C692.8 447.2 687.2 442.534 685.867 440.667C683.733 437.334 683.733 437.067 686.4 434.4L689.2 431.6L700.267 442C706.4 447.734 713.733 454.134 716.533 456.267C721.733 460 726.667 461.2 726.667 458.667C726.667 457.067 713.333 444 711.6 444C711.067 444 707.2 440.934 703.2 437.2C697.333 431.467 696 429.467 696 425.867C696 421.867 702.133 409.334 704.133 409.334C704.667 409.334 709.6 414.4 715.333 420.667C720.933 426.934 726.4 432 727.467 432C731.467 432 728.933 427.2 719.333 416.667C713.867 410.534 709.333 405.2 709.333 404.8C709.333 402.934 711.733 404.267 717.333 409.467C735.867 426.534 741.067 428.267 737.867 416.267C737.2 414.134 736 413.334 733.333 413.334C730.533 413.334 728 411.6 723.333 406.4C716.8 399.067 717.067 397.067 724.133 400.534C730.267 403.6 732.4 403.334 731.2 399.6C730.8 398 729.467 395.734 728.533 394.534C727.467 393.467 726.667 392 726.667 391.467C726.667 390.267 741.2 401.6 741.2 402.934C741.467 405.067 766.8 429.467 768 428.667C770.933 426.934 769.067 423.334 761.333 416.4C753.867 409.467 751.867 406.667 754.4 406.667C754.933 406.667 759.333 410 764.267 414C769.067 418 773.867 421.334 774.667 421.334C775.867 421.334 776.133 423.467 775.467 429.6C774.933 434.267 774.667 439.734 774.667 442C775.067 448.534 775.067 455.467 774.8 478.267C774.667 492 775.333 504.4 776.533 512.267C778.933 527.734 779.867 578.134 777.733 582C776 585.067 742.933 617.467 730.933 627.734C726 632 718.933 636.4 713.333 638.667L703.867 642.534L696.667 639.867C686.933 636.267 683.733 637.334 684.267 643.734C684.667 648.134 685.467 649.067 691.333 652.267C699.333 656.667 702.8 656.8 712.267 653.467C730.8 646.8 737.6 645.2 742.533 646C745.6 646.534 750.8 646 755.467 644.8C764.8 642.4 769.333 643.067 769.333 647.2C769.733 666.8 773.067 700.4 778 734C781.333 756.667 784.667 780.134 785.333 786C786.133 791.867 787.333 800 788 804.134C788.8 808.134 789.333 814.534 789.333 818.267C789.333 822 790.133 827.334 791.067 830.134C793.067 835.867 796.8 891.867 795.6 898.134C794.933 902 796 920 798.8 949.334C799.6 957.734 800.667 975.734 801.333 989.334C802.4 1012 802.8 1015.2 807.067 1028.93C809.6 1037.07 811.333 1045.2 811.067 1047.07C810.267 1050.8 815.867 1056 819.733 1055.33C820.933 1055.07 823.333 1054.8 825.067 1054.8C826.8 1054.67 829.6 1053.2 831.333 1051.47L834.533 1048.27L831.867 1039.07C824.8 1014.93 821.333 997.734 821.333 987.334C821.333 981.467 820.4 970.667 819.333 963.467C818.267 956.134 817.333 947.6 817.333 944.534C817.333 941.334 816.133 932.534 814.667 925.067C813.2 917.467 812 907.334 812 902.4C812 892.267 806 840.8 804 832.667C803.2 829.734 802 810.8 801.333 790.667C800.533 765.2 799.6 751.467 798.133 745.6C796.933 741.067 795.6 732.934 795.2 727.6C794.8 722.267 793.6 715.734 792.533 712.934C791.467 710.267 790.667 703.867 790.667 698.934C790.667 694 790 679.6 789.067 666.934L787.467 644L790.8 636.267C794.267 628.134 794.533 622.4 792.8 602.667C791.733 591.6 791.867 590.934 796.8 578L801.733 564.667L802 494.667C802.133 454.534 801.6 420.267 800.8 414.267C799.2 401.6 800 400.4 808.133 403.334C811.333 404.534 816.667 406.4 820 407.6C828.267 410.534 830.933 413.467 836.667 427.334C847.067 452.267 849.733 458.267 854.933 467.734C861.2 479.334 865.067 482 876.4 483.2C884.133 484.134 891.467 485.734 922.8 493.734C940.8 498.4 945.2 497.6 958.133 487.734C961.867 484.934 968.667 481.2 973.067 479.467C977.467 477.734 983.2 474.8 985.6 472.934C988 471.067 993.067 468.134 996.667 466.267C1000.4 464.4 1004.27 461.867 1005.47 460.534C1008.67 456.8 1009.73 452.4 1007.73 451.2C1005.87 450 992.267 446 982.933 444C979.867 443.334 970 440.667 960.933 438.134C952 435.6 940.133 432.8 934.667 432C921.333 430.134 915.333 428.4 913.333 426.134C911.733 424.134 914.667 415.2 926.533 386.4C929.467 379.334 932.667 370.934 933.467 367.867C934.533 364.667 936.8 361.2 938.933 359.6C940.933 358.134 942.667 355.734 942.667 354.4C942.667 353.067 943.333 352 944.133 352C945.6 352 956.933 355.467 1005.6 370.8C1017.07 374.4 1028 377.334 1029.87 377.334C1032 377.334 1034.13 376.134 1035.33 374.134C1037.33 371.067 1037.33 370.134 1035.47 363.067C1034.27 358.8 1031.6 347.2 1029.47 337.334C1027.33 327.467 1024 316 1022.13 311.734L1018.53 304.267L1002.27 298.267C993.333 295.067 980.667 291.067 974 289.467C967.467 287.734 955.733 284.4 948.133 281.734C940.4 279.2 930.8 276.667 926.533 276.4C919.467 275.734 918.133 276.134 909.733 280.667C904.8 283.334 896.133 288.667 890.667 292.4C877.067 301.467 856 314.134 852.4 315.2C850.533 315.867 845.067 314.934 838.4 312.8C832.267 311.067 824.267 309.2 820.4 308.8C813.467 308 803.6 304.8 800.133 302.134C798.8 301.067 798.533 298.667 799.067 292.667C800.533 277.467 795.467 244 790.8 238.134C790.133 237.334 786.533 228.934 782.8 219.334C778.933 209.867 774.267 200.4 772.4 198.4C770.4 196.267 766.4 194.267 762.133 193.2C758.4 192.4 751.867 190.267 747.6 188.4C743.333 186.667 736 184.8 731.2 184.4C726.533 184 722 182.8 721.2 181.867C718 178 713.6 180 702 190C695.733 195.467 689.733 200 688.8 200C685.467 200 681.6 189.067 680.133 175.734C679.333 168.534 678.667 162.134 678.667 161.467C678.667 160.667 676.8 158 674.667 155.467C669.2 149.334 656.533 145.2 641.333 144.667C635.067 144.4 624.933 143.334 618.667 142.134C595.6 137.867 598.667 137.2 590.8 147.2C587.067 152.134 580.267 158.8 575.733 162.134C568.667 167.334 567.333 167.867 565.6 166.134C564.533 165.2 559.067 155.334 553.467 144.534C547.867 133.734 542.4 124.4 541.333 123.867C540.267 123.334 529.467 121.6 517.333 120C505.2 118.4 488.8 116.267 480.933 115.067C460 112.134 457.733 113.467 446.133 135.867C441.6 144.8 439.333 147.734 438.267 146.8C437.333 146.134 433.733 139.6 430.133 132.267C421.2 114.134 420.133 113.734 396.933 119.334C389.467 121.067 378.8 123.467 373.333 124.667C355.867 128.267 353.867 128.8 348.667 131.467C344 133.734 342.933 135.2 339.333 144.667L335.2 155.334L325.333 155.6C317.2 155.867 311.867 154.934 297.2 150.8C287.333 148 276.8 144.534 273.867 143.067C271.067 141.6 263.2 138.534 256.4 136.134C249.733 133.734 243.2 130.667 242 129.334C240.8 128 233.867 113.334 226.667 96.8002C219.333 80.1336 212.533 64.9336 211.333 62.9336C207.733 56.9336 201.067 53.3336 184.933 48.6669C176.667 46.2669 164.267 42.2669 157.333 39.6002C145.733 35.3336 121.333 28.4002 113.333 27.0669C111.2 26.8002 107.467 28.1336 103.067 30.9336ZM487.6 131.334C496.8 133.467 506.4 134.8 516.933 135.2L532.533 135.6L538.667 150.134C542.133 158.134 547.067 169.067 549.733 174.267C554.133 182.8 554.667 185.067 554.667 193.6C554.667 198.934 553.867 210.4 552.8 219.334C551.733 228.134 550.133 243.067 549.333 252.667C548.533 262.134 546.4 279.867 544.667 292C543.067 304.134 541.2 321.734 540.8 331.2C539.867 350.134 537.867 366.8 535.733 372.134C534.933 374.534 532.667 376.4 528.933 377.867C522.8 380.134 508.133 390.667 506.4 394C505.467 395.6 502.4 396 492 396H478.8L474.667 390.934C472.4 388.267 468.667 381.334 466.4 375.734C464.133 370.134 460.933 364 459.333 362.267C454.667 357.334 453.333 354 454.133 349.067C454.667 346 454.133 342.934 452.667 340C449.6 334.134 449.067 327.867 448.8 293.334L448.533 264.667L452.933 258.4C455.467 254.934 460.533 249.334 464.267 246L471.067 239.867L469.467 228.267C467.2 212.667 462.533 192.134 461.2 191.2C460.533 190.8 460 189.2 460 187.734C460 186.134 458.133 183.334 455.867 181.467C449.6 176.134 449.333 169.467 454.667 157.867C460.533 145.334 465.333 134.667 466.8 130.934C468.267 127.2 470.667 127.2 487.6 131.334ZM413.067 145.6C414.267 148.8 418.133 157.2 421.6 164.267C425.067 171.467 427.333 177.6 426.667 178C421.867 180.934 338.667 191.067 338.667 188.667C338.667 188.267 340.8 183.867 343.333 178.8C345.867 173.867 348 169.2 348 168.4C348 167.734 351.067 162.8 354.667 157.6C358.4 152.4 361.333 146.934 361.333 145.6C361.333 140.534 363.733 140 387.733 140H410.933L413.067 145.6ZM618.4 158C623.733 159.867 630.933 161.867 634.533 162.4C640.8 163.334 641.333 163.734 652 177.067C662.933 190.8 669.467 201.6 671.867 209.734C672.533 212 674 216.134 675.067 218.667C676.667 222.667 676.8 224.534 675.2 231.867C672.933 242.934 663.2 272.267 659.333 280C657.733 283.334 654.4 292.267 652 300C644.4 324.934 627.333 368.667 622.4 376.4C621.067 378.267 620 381.467 620 383.334C620 387.067 614.667 393.334 611.467 393.334C610.267 393.334 608.4 394.8 607.333 396.534C606.133 398.267 600 402.4 593.733 405.467C583.467 410.667 581.2 411.334 571.467 411.734C550.267 412.667 545.067 408.8 548.533 394.934C553.6 374.934 561.2 317.734 560.933 301.334C560.8 298.8 561.6 290.667 562.533 283.334C566.267 253.067 566.933 246 567.6 218.4L568.267 189.334L576.533 182.4C580.933 178.534 589.467 170.667 595.333 165.067C601.2 159.334 606.667 154.667 607.467 154.667C608.267 154.667 613.2 156.134 618.4 158ZM729.2 204.267C738 206.4 762.133 215.867 763.733 217.734C764.533 218.667 766.667 225.334 768.667 232.667C770.667 240 772.933 247.067 773.6 248.4C775.6 252.267 771.333 264.134 760.533 285.2C755.067 295.734 750.667 304.934 750.667 305.734C750.667 306.4 748 311.067 744.8 316C741.6 320.934 735.867 330.267 732.267 336.8C728.533 343.334 723.333 351.6 720.667 355.067C718 358.534 714.533 364 712.933 367.067C711.2 370.134 707.467 376.267 704.4 380.667C701.467 385.067 697.467 391.734 695.6 395.467C691.6 403.2 684.533 414.134 682.533 415.334C681.867 415.867 681.333 417.6 681.333 419.467C681.333 423.6 674.533 428 668 428C655.467 427.867 635.6 418.134 630 409.334C627.067 404.8 627.067 404.667 629.467 399.334C630.8 396.4 632 392.134 632 389.867C632 387.6 634.4 380.667 637.2 374.4C640.133 368.134 643.2 360.4 644 357.2C644.933 354 646.933 348.667 648.667 345.334C650.267 342 654.533 330.667 658 320C661.467 309.334 666.533 295.467 669.333 289.2C672.133 282.934 675.467 274.134 676.533 269.867C677.6 265.6 680.133 258.267 682 253.734C683.867 249.067 685.333 244.267 685.333 243.067C685.333 239.334 693.2 223.734 697.067 219.6C699.067 217.467 703.067 214.8 706.133 213.467C709.2 212.134 713.333 208.8 715.467 206.134C717.733 203.334 720.133 201.6 721.2 202C722.133 202.4 725.733 203.334 729.2 204.267ZM784.8 298.267C784.533 298.667 782.933 298.134 781.467 297.067C778.8 295.2 778.8 295.2 781.733 290.534L784.667 286L785.067 291.867C785.333 294.934 785.2 297.867 784.8 298.267ZM412 309.334C412 311.867 410.533 312.8 408.933 311.2C407.867 310.134 409.333 306.667 410.8 306.667C411.467 306.667 412 307.867 412 309.334ZM404.8 318C406 319.867 406.667 321.734 406.267 322.267C405.333 323.067 400.133 317.467 400 315.6C400 313.467 402.667 314.8 404.8 318ZM418.667 320.134C418.667 321.6 418.133 322.4 417.333 322C416.667 321.6 416 320.267 416 319.2C416 318.134 416.667 317.334 417.333 317.334C418.133 317.334 418.667 318.534 418.667 320.134ZM401.333 328.534C401.333 329.2 400.133 328.667 398.667 327.334C397.2 326 396 324 396 322.8C396 321.2 396.8 321.6 398.667 324C400.133 325.867 401.333 327.867 401.333 328.534ZM414 329.334C414.4 330 414.133 330.667 413.467 330.667C412.667 330.667 412 330 412 329.334C412 328.534 412.267 328 412.533 328C412.933 328 413.6 328.534 414 329.334ZM396.933 334.8C397.2 335.867 396.8 337.6 396.133 338.667C395.067 340.267 394.4 340.134 392.133 337.467C389.2 334.134 388.667 331.734 390.267 330.267C391.467 329.067 396.533 332.534 396.933 334.8ZM421.333 338.667C421.333 339.334 420.8 340 420 340C419.333 340 418.667 339.334 418.667 338.667C418.667 337.867 419.333 337.334 420 337.334C420.8 337.334 421.333 337.867 421.333 338.667ZM431.333 342.534C432.133 344 429.333 350.667 427.867 350.667C426 350.667 425.2 348.134 426.133 344.667C426.933 341.334 429.733 340.134 431.333 342.534ZM405.333 346C405.333 348.534 402.667 349.867 401.067 348.267C400 347.2 400.133 346.134 401.333 344.8C403.2 342.534 405.333 343.2 405.333 346ZM390.667 345.867C390.667 346.267 390.133 346.934 389.333 347.334C388.667 347.734 388 347.467 388 346.8C388 346 388.667 345.334 389.333 345.334C390.133 345.334 390.667 345.6 390.667 345.867ZM398.533 355.6C399.333 357.067 399.333 358.8 398.4 360.4C397.2 362.8 397.067 362.8 395.067 360.134C393.067 357.2 393.467 353.334 395.867 353.334C396.667 353.334 397.733 354.4 398.533 355.6ZM412.267 357.6C410.267 359.6 408.8 358.134 409.867 355.2C410.533 353.467 411.067 353.2 412.267 354.4C413.467 355.6 413.467 356.4 412.267 357.6ZM427.467 360.934C426.933 361.467 425.6 360.8 424.533 359.467C421.6 355.334 422.267 353.734 425.6 356.934C427.2 358.667 428 360.4 427.467 360.934ZM423.2 368.267C423.867 370.267 424 372.4 423.467 372.934C422.133 374.267 415.733 366.8 416.8 365.2C418.267 362.8 421.867 364.667 423.2 368.267ZM407.467 367.2C407.867 368.267 407.467 370.4 406.667 372C404.533 375.867 402 373.467 403.2 368.8C404.133 365.067 406.267 364.267 407.467 367.2ZM419.2 384.534C418.267 388.534 417.733 388.667 414.4 385.734C411.733 383.334 411.2 378.667 413.467 376.4C416 373.867 420.267 380.267 419.2 384.534ZM442.4 379.334C442 379.734 441.2 379.067 440.8 377.734C440 375.867 440.133 375.734 441.467 376.934C442.4 377.867 442.8 378.934 442.4 379.334ZM445.467 393.6C462.4 414.134 462.133 414 459.733 412.534C455.2 410 437.733 393.734 433.6 388.4C428.667 382 428.267 380 431.867 380C433.333 380 438.533 385.2 445.467 393.6ZM754.933 386.934C756.933 387.6 760.4 391.067 762.667 394.534C764.8 397.867 768.8 403.067 771.333 406C774.133 409.2 776 412.667 776 414.8C776 418.134 775.2 417.6 765.333 408.267C756 399.6 751.333 394 746.133 385.467C744.933 383.6 747.333 384 754.933 386.934ZM431.6 395.734C434 399.2 437.333 402.667 438.933 403.334C440.533 404.134 442 405.467 442.4 406.267C443.333 409.467 439.867 408 435.067 403.334C432.4 400.8 429.6 398.667 428.667 398.667C426.133 398.667 422.267 393.6 423.067 391.334C424.533 387.734 427.2 389.2 431.6 395.734ZM748 398.134C748 399.734 747.2 399.6 744 397.334C740.133 394.534 739.067 392.134 740.933 390.134C742.267 388.934 748 395.467 748 398.134ZM781.333 398C781.333 402.667 778.933 402.267 774.8 396.934C773.2 394.934 773.333 394.667 777.2 394.667C780.667 394.667 781.333 395.2 781.333 398ZM531.867 404.8C532.667 406.8 533.067 409.334 532.667 410.534C532.267 412 534.267 415.334 538.4 420C551.6 434.934 570.667 458.667 569.6 458.667C568.267 458.667 560.8 450.934 559.2 447.734C557.333 444.267 525.067 408 523.867 408C521.733 408 522.667 404.134 525.067 402.8C528.667 400.667 530.133 401.067 531.867 404.8ZM475.733 417.467C483.067 426.934 484.533 430 479.467 425.334C474.533 420.934 466.267 409.334 468 409.334C468.8 409.334 472.133 412.934 475.733 417.467ZM488 413.334C489.333 414 496 421.067 502.667 428.934C509.467 436.934 517.6 446 520.533 449.334C523.6 452.667 526.667 456.134 527.2 457.067C530.933 463.2 503.067 441.867 496.4 433.6C493.6 430.134 488.8 424.4 485.733 420.8C482.533 417.334 480 413.867 480 413.2C480 411.6 484.933 411.734 488 413.334ZM503.2 418.4C511.733 430.267 512 431.067 505.467 424.134C501.733 420.134 498.667 416.4 498.667 415.734C498.667 413.6 500.667 414.8 503.2 418.4ZM538.667 460.267C538.667 462.267 536.267 460.267 533.2 455.6L530.267 451.334L534.4 455.2C536.8 457.467 538.667 459.734 538.667 460.267ZM785.733 617.867C787.067 627.2 786.267 629.6 782.4 629.067C778 628.4 776.533 621.067 779.467 614.4C780.667 611.6 782.4 609.467 783.2 609.734C784 610 785.2 613.734 785.733 617.867ZM773.333 621.6C773.333 623.334 773.733 626 774.133 627.467C774.8 629.734 774.133 630.667 770.8 631.734C765.333 633.6 764.667 632 768.267 624.8C771.467 618.134 773.333 616.934 773.333 621.6ZM762.133 626.134C761.733 627.334 761.333 629.334 761.333 630.667C761.333 632.134 760.133 633.867 758.533 634.667C755.333 636.4 753.467 635.334 755.733 633.067C756.667 632.134 757.333 630.534 757.333 629.334C757.333 627.067 759.867 624 761.733 624C762.4 624 762.533 624.934 762.133 626.134ZM748.933 635.067C747.467 637.334 745.2 638.534 742.133 638.934C739.467 639.2 737.333 638.934 737.333 638.4C737.333 637.867 739.867 635.6 742.933 633.334C749.2 628.667 752.533 629.734 748.933 635.067ZM509.733 658.267C508.8 658.534 507.2 658.534 506.4 658.267C505.467 657.867 506.133 657.6 508 657.6C509.867 657.6 510.533 657.867 509.733 658.267Z" fill="#1D58A9"/>
<path d="M473.733 366.134C473.333 367.2 473.867 369.067 474.933 370.134C477.067 372.267 498.4 375.6 501.867 374.267C504.4 373.2 504.8 368 502.133 368C501.2 368 499.6 367.067 498.667 366C496.267 363.067 474.933 363.067 473.733 366.134Z" fill="#1D58A9"/>
<path d="M565.733 376.8C564.666 379.733 566.8 382.933 571.2 385.067C576.4 387.6 602.533 387.733 604.133 385.2C604.8 384.133 605.333 382.933 605.333 382.533C605.333 380.8 595.2 377.2 586.933 376C573.2 374 566.666 374.267 565.733 376.8Z" fill="#1D58A9"/>
<path d="M640 388C640 390.933 647.067 395.467 658.533 400C666.533 403.067 669.467 402.8 668.4 398.933C668 397.333 663.6 394.267 656.933 390.8C644.667 384.667 640 383.867 640 388Z" fill="#1D58A9"/>
<path d="M705.333 425.334C705.333 427.334 718 441.467 721.867 443.6C727.733 446.8 726.533 443.467 719.067 436.267C707.733 425.2 705.333 423.334 705.333 425.334Z" fill="#1D58A9"/>
<path d="M580 438C580 440 620.8 478.667 622.933 478.667C625.333 478.667 623.333 476.4 606.133 459.867C584.933 439.333 580 435.2 580 438Z" fill="#1D58A9"/>
<path d="M491.2 690.533C483.067 696.267 480.933 700.4 481.733 708.4C482 712.267 483.333 718.267 484.533 722C485.733 725.6 487.2 730.133 487.733 732C488.267 733.867 489.733 735.467 490.8 735.733C493.867 736.267 494.933 727.733 493.067 717.867C491.067 706.933 491.2 703.067 494 700C496.933 696.8 501.067 696.533 505.067 699.333C507.867 701.333 508 702.267 507.867 722.4C507.733 733.867 508.4 754.4 509.333 768C510.267 781.6 511.333 805.6 511.867 821.333C512.533 846.267 512.933 850 514.8 850.4C516.533 850.667 517.2 849.467 517.867 845.067C519.067 835.733 518.933 815.2 517.333 796C516.4 786.133 515.6 760.8 515.333 739.733L514.933 701.333L509.867 695.333C501.867 685.467 499.067 684.667 491.2 690.533Z" fill="#1D58A9"/>
<path d="M543.6 695.6C539.467 704.667 540 727.6 544.667 742.134C546.533 747.6 548 754.4 548 757.2C548 760 548.933 764.534 550 767.067C551.467 770.534 552 776.8 552 788.267C552 797.334 552.8 807.334 553.733 810.667C554.667 814.267 555.333 826.4 555.333 840.667C555.467 871.6 558.133 952 559.333 960.934C560.267 967.2 562.933 970.934 564.533 968.134C565.6 966.534 565.6 954.534 564.667 950.667C564.267 948.8 564 938 564 926.667C564 915.334 564 893.734 564 878.667C564 863.6 563.467 833.6 562.667 812C561.867 790.4 561.2 758.267 561.2 740.534C561.067 713.467 561.333 707.867 563.2 704.267C565.867 698.934 566 699.6 561.2 694C557.733 690.134 556.133 689.334 551.867 689.334C546.8 689.334 546.4 689.734 543.6 695.6Z" fill="#1D58A9"/>
<path d="M584 697.734C582.134 698.667 578.134 701.2 574.934 703.2L569.2 706.8L569.6 717.734L570 728.667L576.667 729.334C582.534 729.867 583.334 730.4 583.734 733.334C584.934 742.267 586.8 746.534 589.734 746.934C592.534 747.334 592.667 748.267 593.6 760.667C594.134 768 594.267 782.134 593.867 792C593.2 806.667 593.467 810.934 595.2 814.934C598 821.467 598.134 854.134 595.334 866.667C592.8 878 592.8 907.334 595.334 931.334C596.534 943.334 597.334 965.2 597.334 992.934C597.334 1033.6 597.467 1036 599.867 1037.6C602 1039.07 602.534 1041.73 603.334 1052.67C603.867 1060 604.534 1066.4 604.934 1067.07C605.2 1067.6 606.667 1067.33 608 1066.67C610.134 1065.47 610.4 1064.27 609.867 1058.93C609.334 1054.93 609.867 1050.53 611.2 1046.8C612.4 1043.6 613.334 1037.87 613.334 1034.13C613.334 1019.6 610.4 980.267 608.534 971.467C606.267 960.134 606.134 950.667 608.534 947.734C609.6 946.134 610 943.067 609.6 938.8C609.2 933.734 609.734 930.8 611.6 927.067C614.134 922.4 614.267 920.667 613.2 906C610.134 864.934 609.467 850.667 609.2 824.667C608.534 763.334 609.2 728.667 611.2 714.667L612.134 707.334L604.667 702.134C596.267 696.534 589.067 694.934 584 697.734Z" fill="#1D58A9"/>
</svg>
