<svg width="1004" height="1041" viewBox="0 0 1004 1041" fill="none" xmlns="http://www.w3.org/2000/svg">
<path d="M69.4509 3.90015C63.8509 7.50012 46.6509 22.7001 27.4509 41.2335C19.8509 48.5668 23.4509 52.3001 44.5176 58.8334C53.1842 61.6334 64.9175 65.3668 70.3842 67.1001C75.8509 68.9668 87.0509 72.3001 95.0509 74.4335C103.184 76.7001 110.251 78.9668 110.784 79.6334C113.318 82.0334 113.051 96.9668 110.518 106.033C109.051 110.967 105.984 123.9 103.584 134.967C101.184 145.9 98.3842 156.033 97.1842 157.367C94.6509 160.433 91.9842 159.767 75.7176 152.3C68.6509 148.967 58.1175 144.833 52.3842 143.1C46.5176 141.367 39.3176 138.967 36.3842 137.633C26.9176 133.5 8.51755 127.367 5.05089 127.233C2.25089 126.967 1.58422 127.767 0.517554 131.767C-0.549112 136.033 -0.149112 137.5 3.45089 143.367C5.71755 146.967 8.38422 152.7 9.58422 156.167C10.7842 159.5 13.8509 165.233 16.5176 168.967C19.1842 172.7 22.7842 179.9 24.5176 185.1C30.2509 202.033 33.0509 204.3 58.6509 212.433C66.9175 215.1 81.3176 220.833 90.6509 225.1C99.8509 229.5 108.784 232.967 110.384 232.967C111.984 232.967 114.518 231.5 115.984 229.633C117.451 227.767 119.184 226.3 120.118 226.3C122.118 226.3 137.584 217.1 154.251 206.033C161.851 200.833 169.718 196.167 171.584 195.5C175.984 193.9 194.518 198.567 208.651 204.833C213.851 207.1 218.918 208.967 219.984 208.967C221.451 208.967 221.718 216.033 221.318 247.367C220.918 296.433 219.318 325.9 216.384 337.633C214.651 344.167 213.851 353.633 213.584 369.633C213.318 382.033 212.651 404.167 211.851 418.833C210.918 437.1 211.051 446.167 211.984 448.3C212.784 450.167 215.851 452.3 219.318 453.633C225.851 456.167 238.251 465.9 252.384 479.5C257.584 484.567 265.851 491.233 271.051 494.3C286.384 503.633 320.384 532.3 342.518 554.567C346.784 558.833 351.851 562.567 353.984 563.1C359.184 564.3 369.451 572.167 388.518 589.633C397.451 597.633 407.851 606.967 411.584 610.3L418.384 616.3L419.718 652.033C420.518 671.767 420.651 688.567 420.118 689.367C419.584 690.167 419.051 696.833 418.784 704.167C418.518 711.633 417.984 722.433 417.318 728.3C416.784 734.167 416.784 744.3 417.318 750.967C419.718 782.967 419.984 798.433 418.518 816.167C417.718 826.567 416.651 852.967 416.384 874.967C414.651 985.9 414.651 984.967 411.718 1000.97C410.118 1009.37 408.518 1019.1 408.118 1022.57C407.451 1028.83 407.451 1028.97 412.118 1030.97C419.184 1033.9 424.118 1033.5 427.584 1029.77C429.851 1027.37 430.518 1025.5 429.851 1023.1C429.451 1021.37 430.651 1012.7 432.518 1004.03C435.718 989.633 435.851 986.833 434.918 971.633C434.384 962.433 434.118 939.367 434.251 920.3C434.518 901.233 433.984 880.833 433.184 874.967C430.118 851.233 430.918 802.833 435.718 723.1C437.184 698.167 438.384 666.833 438.384 653.367C438.384 640.033 438.784 628.967 439.184 628.967C439.584 628.967 443.318 632.033 447.451 635.633C461.584 648.167 460.518 648.033 505.718 646.833C542.384 646.033 545.051 645.767 545.051 643.5C545.051 642.167 544.384 640.7 543.718 640.3C540.918 638.567 544.118 636.967 550.251 636.967C557.451 636.967 558.384 636.433 557.451 633.1C556.918 631.233 553.718 629.9 543.318 627.633C531.984 625.1 524.384 624.567 496.918 623.9L464.118 623.367L456.651 617.1C452.518 613.767 446.384 608.833 442.784 606.3C439.318 603.767 431.051 597.367 424.384 592.167C417.851 586.967 408.651 580.167 403.984 577.1C399.451 574.033 390.118 566.3 383.318 559.767C376.651 553.367 366.518 544.833 361.051 540.967C350.518 533.5 339.584 524.7 331.718 517.233C329.184 514.833 320.384 508.433 312.251 502.967C304.118 497.633 295.451 491.233 293.051 488.7C290.651 486.3 284.384 480.967 279.051 476.967C244.118 450.433 244.251 450.567 239.584 438.7C237.184 432.7 236.384 427.633 235.984 415.633C234.918 385.9 235.184 370.7 236.651 349.633C237.584 337.9 238.518 297.9 238.918 260.7C239.318 215.233 239.984 192.3 240.918 190.433C241.851 188.833 244.384 187.367 247.451 186.833C250.118 186.433 258.118 184.567 265.051 182.967C271.984 181.233 278.118 180.3 278.784 180.833C279.318 181.367 278.784 184.433 277.718 187.767C276.518 190.967 275.984 194.967 276.384 196.567C277.318 200.7 283.318 200.567 305.584 196.3C314.918 194.433 328.784 192.3 336.251 191.633C349.051 190.3 353.318 189.633 369.051 186.167C374.784 184.967 375.718 184.3 375.718 181.5C375.718 177.5 374.251 177.5 357.984 180.833C351.318 182.3 341.184 183.767 335.718 184.3C321.051 185.5 299.984 188.833 292.651 191.233C289.051 192.3 285.984 192.967 285.584 192.7C284.251 191.233 289.584 179.367 292.384 177.5C294.384 176.3 301.051 174.967 309.984 174.3C317.851 173.633 327.718 172.567 331.718 171.9C335.718 171.1 347.718 170.167 358.384 169.633C369.184 169.1 382.118 167.633 387.718 166.3C393.184 164.967 400.251 163.5 403.184 162.967C408.518 162.167 408.784 162.3 410.384 166.567C412.918 173.5 421.051 206.567 421.051 209.9C421.051 211.767 419.184 214.3 416.251 216.567C409.584 221.633 403.051 228.433 397.051 236.3C394.384 239.9 390.651 244.167 389.051 245.633C387.318 247.1 383.984 251.233 381.718 254.967C376.918 262.3 346.384 293.1 339.718 297.367L335.451 300.033L315.718 296.433C304.784 294.3 295.184 293.1 294.518 293.633C293.718 294.033 293.051 295.633 293.051 297.1C293.051 301.5 308.384 307.767 325.051 310.167L339.051 312.3L339.184 324.967C339.318 335.1 340.251 340.167 343.584 350.3C345.851 357.233 347.718 363.633 347.718 364.433C347.718 365.767 339.584 376.567 325.184 394.433C317.984 403.367 313.718 411.9 314.918 414.967C315.584 416.967 316.918 416.3 322.784 410.833C326.651 407.233 333.718 400.967 338.384 396.967C347.451 389.1 349.184 387.367 352.784 382.7C353.984 380.967 359.184 378.167 364.384 376.3L373.718 372.967L379.318 375.633C382.384 377.1 388.918 380.7 393.584 383.633C398.384 386.567 406.651 391.1 411.984 393.767C425.718 400.7 452.118 417.233 495.984 446.167C528.384 467.5 543.584 482.167 551.051 499.1C553.584 504.7 553.984 506.833 552.918 512.033C552.384 515.367 551.584 524.3 551.451 531.9C551.051 543.767 551.318 545.633 553.184 546.033C554.651 546.3 555.984 545.1 556.784 542.7C557.984 539.633 558.251 539.367 558.251 541.767C558.384 545.9 561.851 548.433 564.384 546.3C565.451 545.367 566.384 544.033 566.384 543.233C566.384 542.433 567.584 540.567 568.918 539.1C571.051 536.833 571.718 533.367 572.384 520.967C573.184 507.367 573.051 504.7 570.518 497.367C568.918 492.833 567.718 488.033 567.718 486.967C567.718 482.7 559.451 472.967 551.984 468.167C545.984 464.3 524.918 448.567 516.251 441.5C515.318 440.7 514.784 438.967 515.184 437.5C515.718 435.633 512.117 431.233 500.918 420.3C487.051 406.833 474.384 391.633 474.384 388.833C474.384 385.1 479.451 389.367 491.851 403.9C499.451 412.967 511.718 426.567 519.051 434.3C526.384 442.033 535.584 451.9 539.584 456.033C543.451 460.167 547.184 463.233 547.851 462.833C550.918 460.967 548.384 456.3 539.584 448.033C528.784 437.633 503.984 410.433 491.184 395.1C485.051 387.633 482.918 384.167 484.118 383.367C486.251 382.033 490.784 386.567 507.051 406.3C529.451 433.633 537.051 441.233 540.651 440.567C542.918 440.167 545.318 441.5 549.984 445.767C556.251 451.633 558.918 452.833 560.384 450.3C561.318 448.7 558.251 443.633 556.118 443.633C554.518 443.633 522.384 405.9 522.384 404.033C522.384 403.5 528.918 409.633 536.784 417.633C556.117 437.633 569.051 449.1 571.584 448.7C575.318 447.9 574.918 443.767 570.918 442.3C566.651 440.7 530.384 404.833 530.384 402.3C530.384 400.033 538.651 401.633 547.184 405.767C550.918 407.5 555.584 408.967 557.451 408.967C560.118 408.967 563.318 411.767 571.851 421.233C595.051 447.367 605.451 458.033 607.851 458.7C613.451 460.167 609.718 454.567 592.784 436.167C583.051 425.5 572.651 414.167 569.851 410.967L564.651 404.967L568.518 400.833C570.651 398.567 574.118 395.5 576.251 394.033C581.451 390.167 582.651 392.567 581.718 404.567C580.784 414.033 580.918 414.433 585.318 419.9C595.851 433.633 621.451 456.967 625.584 456.967C628.918 456.967 628.118 454.567 623.051 449.233C620.384 446.567 616.651 442.167 614.651 439.5C609.318 432.433 601.051 422.567 595.451 416.167C587.451 407.367 589.584 407.5 598.118 416.3C602.251 420.7 609.318 427.633 613.851 431.633C618.251 435.633 623.318 440.967 625.051 443.5C628.784 448.567 641.584 457.767 646.918 459.1C649.851 459.767 650.384 459.5 650.384 457.1C650.384 455.5 649.584 454.3 648.251 454.3C647.184 454.3 641.051 449.233 634.651 443.1C628.251 436.967 620.118 429.5 616.384 426.567C608.384 420.167 598.918 410.567 599.851 409.767C601.584 407.9 622.918 424.833 642.251 443.367C647.851 448.7 654.384 454.167 656.784 455.633C659.051 457.1 661.051 459.1 661.051 460.033C661.051 462.833 671.051 473.633 676.784 477.1C679.451 478.833 684.384 482.433 687.718 485.233C691.051 488.033 698.784 492.833 704.784 496.167C714.118 501.233 715.984 501.767 717.984 500.3C720.251 498.567 720.251 498.433 717.718 495.633C716.251 493.9 705.851 485.767 694.784 477.367C683.584 468.967 672.118 459.5 669.184 456.167C666.118 452.567 662.918 450.3 661.184 450.3C658.251 450.3 650.384 442.967 650.384 440.167C650.384 439.367 647.984 437.633 645.184 436.3C642.384 435.1 637.051 431.367 633.584 428.167C628.118 423.367 627.451 422.167 629.051 420.967C632.118 418.833 633.451 419.633 645.318 430.967C657.451 442.433 662.384 445.767 665.584 444.567C669.451 443.1 667.718 439.9 660.784 435.5C652.784 430.567 639.718 418.567 639.718 416.167C639.718 415.233 640.784 414.167 642.118 413.633C643.718 412.967 645.851 414.3 649.718 418.567C654.651 424.033 663.984 431.633 665.584 431.633C665.984 431.633 668.918 433.5 672.251 435.767C677.851 439.767 681.051 440.033 681.051 436.433C681.051 434.433 679.318 433.1 664.784 423.767C659.184 420.167 653.584 415.5 652.251 413.633C650.118 410.3 650.118 410.033 652.784 407.367L655.584 404.567L666.651 414.967C672.784 420.7 680.118 427.1 682.918 429.233C688.118 432.967 693.051 434.167 693.051 431.633C693.051 430.033 679.718 416.967 677.984 416.967C677.451 416.967 673.584 413.9 669.584 410.167C663.718 404.433 662.384 402.433 662.384 398.833C662.384 394.833 668.518 382.3 670.518 382.3C671.051 382.3 675.984 387.367 681.718 393.633C687.318 399.9 692.784 404.967 693.851 404.967C697.851 404.967 695.318 400.167 685.718 389.633C680.251 383.5 675.718 378.167 675.718 377.767C675.718 375.9 678.118 377.233 683.718 382.433C702.251 399.5 707.451 401.233 704.251 389.233C703.584 387.1 702.384 386.3 699.718 386.3C696.918 386.3 694.384 384.567 689.718 379.367C683.184 372.033 683.451 370.033 690.518 373.5C696.651 376.567 698.784 376.3 697.584 372.567C697.184 370.967 695.851 368.7 694.918 367.5C693.851 366.433 693.051 364.967 693.051 364.433C693.051 363.233 707.584 374.567 707.584 375.9C707.851 378.033 733.184 402.433 734.384 401.633C737.318 399.9 735.451 396.3 727.718 389.367C720.251 382.433 718.251 379.633 720.784 379.633C721.318 379.633 725.718 382.967 730.651 386.967C735.451 390.967 740.251 394.3 741.051 394.3C742.251 394.3 742.518 396.433 741.851 402.567C741.318 407.233 741.051 412.7 741.051 414.967C741.451 421.5 741.451 428.433 741.184 451.233C741.051 464.967 741.718 477.367 742.918 485.233C745.318 500.7 746.251 551.1 744.118 554.967C742.384 558.033 709.318 590.433 697.318 600.7C692.384 604.967 685.318 609.367 679.718 611.633L670.251 615.5L663.051 612.833C653.318 609.233 650.118 610.3 650.651 616.7C651.051 621.1 651.851 622.033 657.718 625.233C665.718 629.633 669.184 629.767 678.651 626.433C697.184 619.767 703.984 618.167 708.918 618.967C711.984 619.5 717.184 618.967 721.851 617.767C731.184 615.367 735.718 616.033 735.718 620.167C736.118 639.767 739.451 673.367 744.384 706.967C747.718 729.633 751.051 753.1 751.718 758.967C752.518 764.833 753.718 772.967 754.384 777.1C755.184 781.1 755.718 787.5 755.718 791.233C755.718 794.967 756.518 800.3 757.451 803.1C759.451 808.833 763.184 864.833 761.984 871.1C761.318 874.967 762.384 892.967 765.184 922.3C765.984 930.7 767.051 948.7 767.718 962.3C768.784 984.967 769.184 988.167 773.451 1001.9C775.984 1010.03 777.718 1018.17 777.451 1020.03C776.651 1023.77 782.251 1028.97 786.118 1028.3C787.318 1028.03 789.718 1027.77 791.451 1027.77C793.184 1027.63 795.984 1026.17 797.718 1024.43L800.918 1021.23L798.251 1012.03C791.184 987.9 787.718 970.7 787.718 960.3C787.718 954.433 786.784 943.633 785.718 936.433C784.651 929.1 783.718 920.567 783.718 917.5C783.718 914.3 782.518 905.5 781.051 898.033C779.584 890.433 778.384 880.3 778.384 875.367C778.384 865.233 772.384 813.767 770.384 805.633C769.584 802.7 768.384 783.767 767.718 763.633C766.918 738.167 765.984 724.433 764.518 718.567C763.318 714.033 761.984 705.9 761.584 700.567C761.184 695.233 759.984 688.7 758.918 685.9C757.851 683.233 757.051 676.833 757.051 671.9C757.051 666.967 756.384 652.567 755.451 639.9L753.851 616.967L757.184 609.233C760.651 601.1 760.918 595.367 759.184 575.633C758.118 564.567 758.251 563.9 763.184 550.967L768.118 537.633L768.384 467.633C768.518 427.5 767.984 393.233 767.184 387.233C765.584 374.567 766.384 373.367 774.518 376.3C777.718 377.5 783.051 379.367 786.384 380.567C794.651 383.5 797.318 386.433 803.051 400.3C813.451 425.233 816.118 431.233 821.318 440.7C827.584 452.3 831.451 454.967 842.784 456.167C850.518 457.1 857.851 458.7 889.184 466.7C907.184 471.367 911.584 470.567 924.518 460.7C928.251 457.9 935.051 454.167 939.451 452.433C943.851 450.7 949.584 447.767 951.984 445.9C954.384 444.033 959.451 441.1 963.051 439.233C966.784 437.367 970.651 434.833 971.851 433.5C975.051 429.767 976.117 425.367 974.117 424.167C972.251 422.967 958.651 418.967 949.318 416.967C946.251 416.3 936.384 413.633 927.318 411.1C918.384 408.567 906.518 405.767 901.051 404.967C887.718 403.1 881.718 401.367 879.718 399.1C878.118 397.1 881.051 388.167 892.918 359.367C895.851 352.3 899.051 343.9 899.851 340.833C900.918 337.633 903.184 334.167 905.318 332.567C907.318 331.1 909.051 328.7 909.051 327.367C909.051 326.033 909.718 324.967 910.518 324.967C911.984 324.967 923.318 328.433 971.984 343.767C983.451 347.367 994.384 350.3 996.251 350.3C998.384 350.3 1000.52 349.1 1001.72 347.1C1003.72 344.033 1003.72 343.1 1001.85 336.033C1000.65 331.767 997.984 320.167 995.851 310.3C993.718 300.433 990.384 288.967 988.518 284.7L984.918 277.233L968.651 271.233C959.718 268.033 947.051 264.033 940.384 262.433C933.851 260.7 922.117 257.367 914.518 254.7C906.784 252.167 897.184 249.633 892.918 249.367C885.851 248.7 884.518 249.1 876.118 253.633C871.184 256.3 862.518 261.633 857.051 265.367C843.451 274.433 822.384 287.1 818.784 288.167C816.918 288.833 811.451 287.9 804.784 285.767C798.651 284.033 790.651 282.167 786.784 281.767C779.851 280.967 769.984 277.767 766.518 275.1C765.184 274.033 764.918 271.633 765.451 265.633C766.918 250.433 761.851 216.967 757.184 211.1C756.518 210.3 752.918 201.9 749.184 192.3C745.318 182.833 740.651 173.367 738.784 171.367C736.784 169.233 732.784 167.233 728.518 166.167C724.784 165.367 718.251 163.233 713.984 161.367C709.718 159.633 702.384 157.767 697.584 157.367C692.918 156.967 688.384 155.767 687.584 154.833C684.384 150.967 679.984 152.967 668.384 162.967C662.118 168.433 656.118 172.967 655.184 172.967C651.851 172.967 647.984 162.033 646.518 148.7C645.718 141.5 645.051 135.1 645.051 134.433C645.051 133.633 643.184 130.967 641.051 128.433C635.584 122.3 622.918 118.167 607.718 117.633C601.451 117.367 591.318 116.3 585.051 115.1C561.984 110.833 565.051 110.167 557.184 120.167C553.451 125.1 546.651 131.767 542.117 135.1C535.051 140.3 533.718 140.833 531.984 139.1C530.918 138.167 525.451 128.3 519.851 117.5C514.251 106.7 508.784 97.3668 507.718 96.8334C506.651 96.3001 495.851 94.5668 483.718 92.9668C471.584 91.3668 455.184 89.2335 447.318 88.0334C426.384 85.1001 424.118 86.4335 412.518 108.833C407.984 117.767 405.718 120.7 404.651 119.767C403.718 119.1 400.118 112.567 396.518 105.233C387.584 87.1001 386.518 86.7001 363.318 92.3001C355.851 94.0334 345.184 96.4335 339.718 97.6334C322.251 101.233 320.251 101.767 315.051 104.433C310.384 106.7 309.318 108.167 305.718 117.633L301.584 128.3L291.718 128.567C283.584 128.833 278.251 127.9 263.584 123.767C253.718 120.967 243.184 117.5 240.251 116.033C237.451 114.567 229.584 111.5 222.784 109.1C216.118 106.7 209.584 103.633 208.384 102.3C207.184 100.967 200.251 86.3001 193.051 69.7668C185.718 53.1001 178.918 37.9001 177.718 35.9001C174.118 29.9001 167.451 26.3001 151.318 21.6334C143.051 19.2335 130.651 15.2335 123.718 12.5668C112.118 8.30005 87.7176 1.36682 79.7176 0.0334473C77.5842 -0.233276 73.8509 1.1001 69.4509 3.90015ZM453.984 104.3C463.184 106.433 472.784 107.767 483.318 108.167L498.918 108.567L505.051 123.1C508.518 131.1 513.451 142.033 516.117 147.233C520.518 155.767 521.051 158.033 521.051 166.567C521.051 171.9 520.251 183.367 519.184 192.3C518.117 201.1 516.518 216.033 515.718 225.633C514.918 235.1 512.784 252.833 511.051 264.967C509.451 277.1 507.584 294.7 507.184 304.167C506.251 323.1 504.251 339.767 502.118 345.1C501.318 347.5 499.051 349.367 495.318 350.833C489.184 353.1 474.518 363.633 472.784 366.967C471.851 368.567 468.784 368.967 458.384 368.967H445.184L441.051 363.9C438.784 361.233 435.051 354.3 432.784 348.7C430.518 343.1 427.318 336.967 425.718 335.233C421.051 330.3 419.718 326.967 420.518 322.033C421.051 318.967 420.518 315.9 419.051 312.967C415.984 307.1 415.451 300.833 415.184 266.3L414.918 237.633L419.318 231.367C421.851 227.9 426.918 222.3 430.651 218.967L437.451 212.833L435.851 201.233C433.584 185.633 428.918 165.1 427.584 164.167C426.918 163.767 426.384 162.167 426.384 160.7C426.384 159.1 424.518 156.3 422.251 154.433C415.984 149.1 415.718 142.433 421.051 130.833C426.918 118.3 431.718 107.633 433.184 103.9C434.651 100.167 437.051 100.167 453.984 104.3ZM379.451 118.567C380.651 121.767 384.518 130.167 387.984 137.233C391.451 144.433 393.718 150.567 393.051 150.967C388.251 153.9 305.051 164.033 305.051 161.633C305.051 161.233 307.184 156.833 309.718 151.767C312.251 146.833 314.384 142.167 314.384 141.367C314.384 140.7 317.451 135.767 321.051 130.567C324.784 125.367 327.718 119.9 327.718 118.567C327.718 113.5 330.118 112.967 354.118 112.967H377.318L379.451 118.567ZM584.784 130.967C590.118 132.833 597.318 134.833 600.918 135.367C607.184 136.3 607.718 136.7 618.384 150.033C629.318 163.767 635.851 174.567 638.251 182.7C638.918 184.967 640.384 189.1 641.451 191.633C643.051 195.633 643.184 197.5 641.584 204.833C639.318 215.9 629.584 245.233 625.718 252.967C624.118 256.3 620.784 265.233 618.384 272.967C610.784 297.9 593.718 341.633 588.784 349.367C587.451 351.233 586.384 354.433 586.384 356.3C586.384 360.033 581.051 366.3 577.851 366.3C576.651 366.3 574.784 367.767 573.718 369.5C572.518 371.233 566.384 375.367 560.118 378.433C549.851 383.633 547.584 384.3 537.851 384.7C516.651 385.633 511.451 381.767 514.918 367.9C519.984 347.9 527.584 290.7 527.318 274.3C527.184 271.767 527.984 263.633 528.918 256.3C532.651 226.033 533.318 218.967 533.984 191.367L534.651 162.3L542.918 155.367C547.318 151.5 555.851 143.633 561.718 138.033C567.584 132.3 573.051 127.633 573.851 127.633C574.651 127.633 579.584 129.1 584.784 130.967ZM695.584 177.233C704.384 179.367 728.518 188.833 730.118 190.7C730.918 191.633 733.051 198.3 735.051 205.633C737.051 212.967 739.318 220.033 739.984 221.367C741.984 225.233 737.718 237.1 726.918 258.167C721.451 268.7 717.051 277.9 717.051 278.7C717.051 279.367 714.384 284.033 711.184 288.967C707.984 293.9 702.251 303.233 698.651 309.767C694.918 316.3 689.718 324.567 687.051 328.033C684.384 331.5 680.918 336.967 679.318 340.033C677.584 343.1 673.851 349.233 670.784 353.633C667.851 358.033 663.851 364.7 661.984 368.433C657.984 376.167 650.918 387.1 648.918 388.3C648.251 388.833 647.718 390.567 647.718 392.433C647.718 396.567 640.918 400.967 634.384 400.967C621.851 400.833 601.984 391.1 596.384 382.3C593.451 377.767 593.451 377.633 595.851 372.3C597.184 369.367 598.384 365.1 598.384 362.833C598.384 360.567 600.784 353.633 603.584 347.367C606.518 341.1 609.584 333.367 610.384 330.167C611.318 326.967 613.318 321.633 615.051 318.3C616.651 314.967 620.918 303.633 624.384 292.967C627.851 282.3 632.918 268.433 635.718 262.167C638.518 255.9 641.851 247.1 642.918 242.833C643.984 238.567 646.518 231.233 648.384 226.7C650.251 222.033 651.718 217.233 651.718 216.033C651.718 212.3 659.584 196.7 663.451 192.567C665.451 190.433 669.451 187.767 672.518 186.433C675.584 185.1 679.718 181.767 681.851 179.1C684.118 176.3 686.518 174.567 687.584 174.967C688.518 175.367 692.118 176.3 695.584 177.233ZM751.184 271.233C750.918 271.633 749.318 271.1 747.851 270.033C745.184 268.167 745.184 268.167 748.118 263.5L751.051 258.967L751.451 264.833C751.718 267.9 751.584 270.833 751.184 271.233ZM378.384 282.3C378.384 284.833 376.918 285.767 375.318 284.167C374.251 283.1 375.718 279.633 377.184 279.633C377.851 279.633 378.384 280.833 378.384 282.3ZM371.184 290.967C372.384 292.833 373.051 294.7 372.651 295.233C371.718 296.033 366.518 290.433 366.384 288.567C366.384 286.433 369.051 287.767 371.184 290.967ZM385.051 293.1C385.051 294.567 384.518 295.367 383.718 294.967C383.051 294.567 382.384 293.233 382.384 292.167C382.384 291.1 383.051 290.3 383.718 290.3C384.518 290.3 385.051 291.5 385.051 293.1ZM367.718 301.5C367.718 302.167 366.518 301.633 365.051 300.3C363.584 298.967 362.384 296.967 362.384 295.767C362.384 294.167 363.184 294.567 365.051 296.967C366.518 298.833 367.718 300.833 367.718 301.5ZM380.384 302.3C380.784 302.967 380.518 303.633 379.851 303.633C379.051 303.633 378.384 302.967 378.384 302.3C378.384 301.5 378.651 300.967 378.918 300.967C379.318 300.967 379.984 301.5 380.384 302.3ZM363.318 307.767C363.584 308.833 363.184 310.567 362.518 311.633C361.451 313.233 360.784 313.1 358.518 310.433C355.584 307.1 355.051 304.7 356.651 303.233C357.851 302.033 362.918 305.5 363.318 307.767ZM387.718 311.633C387.718 312.3 387.184 312.967 386.384 312.967C385.718 312.967 385.051 312.3 385.051 311.633C385.051 310.833 385.718 310.3 386.384 310.3C387.184 310.3 387.718 310.833 387.718 311.633ZM397.718 315.5C398.518 316.967 395.718 323.633 394.251 323.633C392.384 323.633 391.584 321.1 392.518 317.633C393.318 314.3 396.118 313.1 397.718 315.5ZM371.718 318.967C371.718 321.5 369.051 322.833 367.451 321.233C366.384 320.167 366.518 319.1 367.718 317.767C369.584 315.5 371.718 316.167 371.718 318.967ZM357.051 318.833C357.051 319.233 356.518 319.9 355.718 320.3C355.051 320.7 354.384 320.433 354.384 319.767C354.384 318.967 355.051 318.3 355.718 318.3C356.518 318.3 357.051 318.567 357.051 318.833ZM364.918 328.567C365.718 330.033 365.718 331.767 364.784 333.367C363.584 335.767 363.451 335.767 361.451 333.1C359.451 330.167 359.851 326.3 362.251 326.3C363.051 326.3 364.118 327.367 364.918 328.567ZM378.651 330.567C376.651 332.567 375.184 331.1 376.251 328.167C376.918 326.433 377.451 326.167 378.651 327.367C379.851 328.567 379.851 329.367 378.651 330.567ZM393.851 333.9C393.318 334.433 391.984 333.767 390.918 332.433C387.984 328.3 388.651 326.7 391.984 329.9C393.584 331.633 394.384 333.367 393.851 333.9ZM389.584 341.233C390.251 343.233 390.384 345.367 389.851 345.9C388.518 347.233 382.118 339.767 383.184 338.167C384.651 335.767 388.251 337.633 389.584 341.233ZM373.851 340.167C374.251 341.233 373.851 343.367 373.051 344.967C370.918 348.833 368.384 346.433 369.584 341.767C370.518 338.033 372.651 337.233 373.851 340.167ZM385.584 357.5C384.651 361.5 384.118 361.633 380.784 358.7C378.118 356.3 377.584 351.633 379.851 349.367C382.384 346.833 386.651 353.233 385.584 357.5ZM408.784 352.3C408.384 352.7 407.584 352.033 407.184 350.7C406.384 348.833 406.518 348.7 407.851 349.9C408.784 350.833 409.184 351.9 408.784 352.3ZM411.851 366.567C428.784 387.1 428.518 386.967 426.118 385.5C421.584 382.967 404.118 366.7 399.984 361.367C395.051 354.967 394.651 352.967 398.251 352.967C399.718 352.967 404.918 358.167 411.851 366.567ZM721.318 359.9C723.318 360.567 726.784 364.033 729.051 367.5C731.184 370.833 735.184 376.033 737.718 378.967C740.518 382.167 742.384 385.633 742.384 387.767C742.384 391.1 741.584 390.567 731.718 381.233C722.384 372.567 717.718 366.967 712.518 358.433C711.318 356.567 713.718 356.967 721.318 359.9ZM397.984 368.7C400.384 372.167 403.718 375.633 405.318 376.3C406.918 377.1 408.384 378.433 408.784 379.233C409.718 382.433 406.251 380.967 401.451 376.3C398.784 373.767 395.984 371.633 395.051 371.633C392.518 371.633 388.651 366.567 389.451 364.3C390.918 360.7 393.584 362.167 397.984 368.7ZM714.384 371.1C714.384 372.7 713.584 372.567 710.384 370.3C706.518 367.5 705.451 365.1 707.318 363.1C708.651 361.9 714.384 368.433 714.384 371.1ZM747.718 370.967C747.718 375.633 745.318 375.233 741.184 369.9C739.584 367.9 739.718 367.633 743.584 367.633C747.051 367.633 747.718 368.167 747.718 370.967ZM498.251 377.767C499.051 379.767 499.451 382.3 499.051 383.5C498.651 384.967 500.651 388.3 504.784 392.967C517.984 407.9 537.051 431.633 535.984 431.633C534.651 431.633 527.184 423.9 525.584 420.7C523.718 417.233 491.451 380.967 490.251 380.967C488.118 380.967 489.051 377.1 491.451 375.767C495.051 373.633 496.518 374.033 498.251 377.767ZM442.118 390.433C449.451 399.9 450.918 402.967 445.851 398.3C440.918 393.9 432.651 382.3 434.384 382.3C435.184 382.3 438.518 385.9 442.118 390.433ZM454.384 386.3C455.718 386.967 462.384 394.033 469.051 401.9C475.851 409.9 483.984 418.967 486.918 422.3C489.984 425.633 493.051 429.1 493.584 430.033C497.318 436.167 469.451 414.833 462.784 406.567C459.984 403.1 455.184 397.367 452.118 393.767C448.918 390.3 446.384 386.833 446.384 386.167C446.384 384.567 451.318 384.7 454.384 386.3ZM469.584 391.367C478.118 403.233 478.384 404.033 471.851 397.1C468.118 393.1 465.051 389.367 465.051 388.7C465.051 386.567 467.051 387.767 469.584 391.367ZM505.051 433.233C505.051 435.233 502.651 433.233 499.584 428.567L496.651 424.3L500.784 428.167C503.184 430.433 505.051 432.7 505.051 433.233ZM752.118 590.833C753.451 600.167 752.651 602.567 748.784 602.033C744.384 601.367 742.918 594.033 745.851 587.367C747.051 584.567 748.784 582.433 749.584 582.7C750.384 582.967 751.584 586.7 752.118 590.833ZM739.718 594.567C739.718 596.3 740.118 598.967 740.518 600.433C741.184 602.7 740.518 603.633 737.184 604.7C731.718 606.567 731.051 604.967 734.651 597.767C737.851 591.1 739.718 589.9 739.718 594.567ZM728.518 599.1C728.118 600.3 727.718 602.3 727.718 603.633C727.718 605.1 726.518 606.833 724.918 607.633C721.718 609.367 719.851 608.3 722.118 606.033C723.051 605.1 723.718 603.5 723.718 602.3C723.718 600.033 726.251 596.967 728.118 596.967C728.784 596.967 728.918 597.9 728.518 599.1ZM715.318 608.033C713.851 610.3 711.584 611.5 708.518 611.9C705.851 612.167 703.718 611.9 703.718 611.367C703.718 610.833 706.251 608.567 709.318 606.3C715.584 601.633 718.918 602.7 715.318 608.033ZM476.118 631.233C475.184 631.5 473.584 631.5 472.784 631.233C471.851 630.833 472.518 630.567 474.384 630.567C476.251 630.567 476.918 630.833 476.118 631.233Z" fill="#1D58A9"/>
<path d="M440.118 339.1C439.718 340.167 440.251 342.033 441.318 343.1C443.451 345.233 464.784 348.567 468.251 347.233C470.784 346.167 471.184 340.967 468.518 340.967C467.584 340.967 465.984 340.033 465.051 338.967C462.651 336.033 441.318 336.033 440.118 339.1Z" fill="#1D58A9"/>
<path d="M532.117 349.767C531.051 352.7 533.184 355.9 537.584 358.033C542.784 360.567 568.917 360.7 570.517 358.167C571.184 357.1 571.717 355.9 571.717 355.5C571.717 353.767 561.584 350.167 553.317 348.967C539.584 346.967 533.051 347.233 532.117 349.767Z" fill="#1D58A9"/>
<path d="M606.384 360.967C606.384 363.9 613.451 368.434 624.918 372.967C632.918 376.034 635.851 375.767 634.784 371.9C634.384 370.3 629.984 367.234 623.318 363.767C611.051 357.634 606.384 356.834 606.384 360.967Z" fill="#1D58A9"/>
<path d="M671.718 398.3C671.718 400.3 684.384 414.433 688.251 416.567C694.118 419.767 692.918 416.433 685.451 409.233C674.118 398.167 671.718 396.3 671.718 398.3Z" fill="#1D58A9"/>
<path d="M546.384 410.967C546.384 412.967 587.184 451.634 589.318 451.634C591.718 451.634 589.718 449.367 572.518 432.834C551.318 412.3 546.384 408.167 546.384 410.967Z" fill="#1D58A9"/>
<path d="M457.584 663.5C449.451 669.233 447.318 673.367 448.118 681.367C448.384 685.233 449.718 691.233 450.918 694.967C452.118 698.567 453.584 703.1 454.118 704.967C454.651 706.833 456.118 708.433 457.184 708.7C460.251 709.233 461.318 700.7 459.451 690.833C457.451 679.9 457.584 676.033 460.384 672.967C463.318 669.767 467.451 669.5 471.451 672.3C474.251 674.3 474.384 675.233 474.251 695.367C474.118 706.833 474.784 727.367 475.718 740.967C476.651 754.567 477.718 778.567 478.251 794.3C478.918 819.233 479.318 822.967 481.184 823.367C482.918 823.633 483.584 822.433 484.251 818.033C485.451 808.7 485.318 788.167 483.718 768.967C482.784 759.1 481.984 733.767 481.718 712.7L481.318 674.3L476.251 668.3C468.251 658.433 465.451 657.633 457.584 663.5Z" fill="#1D58A9"/>
<path d="M509.984 668.567C505.851 677.633 506.384 700.567 511.051 715.1C512.918 720.567 514.384 727.367 514.384 730.167C514.384 732.967 515.318 737.5 516.384 740.033C517.851 743.5 518.384 749.767 518.384 761.233C518.384 770.3 519.184 780.3 520.118 783.633C521.051 787.233 521.718 799.367 521.718 813.633C521.851 844.567 524.518 924.967 525.718 933.9C526.651 940.167 529.318 943.9 530.918 941.1C531.984 939.5 531.984 927.5 531.051 923.633C530.651 921.767 530.384 910.967 530.384 899.633C530.384 888.3 530.384 866.7 530.384 851.633C530.384 836.567 529.851 806.567 529.051 784.967C528.251 763.367 527.584 731.233 527.584 713.5C527.451 686.433 527.718 680.833 529.584 677.233C532.251 671.9 532.384 672.567 527.584 666.967C524.118 663.1 522.518 662.3 518.251 662.3C513.184 662.3 512.784 662.7 509.984 668.567Z" fill="#1D58A9"/>
<path d="M550.384 670.7C548.517 671.634 544.517 674.167 541.317 676.167L535.584 679.767L535.984 690.7L536.384 701.634L543.051 702.3C548.917 702.834 549.717 703.367 550.117 706.3C551.317 715.234 553.184 719.5 556.117 719.9C558.917 720.3 559.051 721.234 559.984 733.634C560.517 740.967 560.651 755.1 560.251 764.967C559.584 779.634 559.851 783.9 561.584 787.9C564.384 794.434 564.517 827.1 561.717 839.634C559.184 850.967 559.184 880.3 561.717 904.3C562.917 916.3 563.717 938.167 563.717 965.9C563.717 1006.57 563.851 1008.97 566.251 1010.57C568.384 1012.03 568.917 1014.7 569.717 1025.63C570.251 1032.97 570.917 1039.37 571.317 1040.03C571.584 1040.57 573.051 1040.3 574.384 1039.63C576.517 1038.43 576.784 1037.23 576.251 1031.9C575.717 1027.9 576.251 1023.5 577.584 1019.77C578.784 1016.57 579.717 1010.83 579.717 1007.1C579.717 992.567 576.784 953.234 574.917 944.434C572.651 933.1 572.517 923.634 574.917 920.7C575.984 919.1 576.384 916.034 575.984 911.767C575.584 906.7 576.117 903.767 577.984 900.034C580.517 895.367 580.651 893.634 579.584 878.967C576.517 837.9 575.851 823.634 575.584 797.634C574.917 736.3 575.584 701.634 577.584 687.634L578.517 680.3L571.051 675.1C562.651 669.5 555.451 667.9 550.384 670.7Z" fill="#1D58A9"/>
</svg>
