<svg width="83" height="23" viewBox="0 0 83 23" fill="none" xmlns="http://www.w3.org/2000/svg"><g clip-path="url(#clip0_72_45914)"><g clip-path="url(#clip1_72_45914)"><path fill-rule="evenodd" clip-rule="evenodd" d="M39.2016 5.35548C40.0926 5.35548 40.8149 4.60433 40.8149 3.67774C40.8149 2.75115 40.0926 2 39.2016 2C38.3107 2 37.5884 2.75115 37.5884 3.67774C37.5884 4.60433 38.3107 5.35548 39.2016 5.35548ZM21.9938 7.21777C19.1384 7.21777 16.8207 9.63372 16.8207 12.5978C16.8207 15.5617 19.1438 17.9777 21.9938 17.9777C24.8439 17.9777 27.1669 15.5617 27.1669 12.5978C27.1669 9.63372 24.8492 7.21777 21.9938 7.21777ZM21.9938 15.4331C20.4935 15.4331 19.2728 14.1637 19.2728 12.6034C19.2728 11.0431 20.4935 9.77353 21.9938 9.77353C23.4941 9.77353 24.7148 11.0431 24.7148 12.6034C24.7148 14.1637 23.4941 15.4331 21.9938 15.4331ZM11.0345 7.2066C11.1689 7.2066 11.2981 7.21219 11.4325 7.22337C12.5617 7.32404 13.5996 7.86651 14.3578 8.75012C15.116 9.62814 15.5355 10.7634 15.5355 11.9434V17.7596H13.0618V11.8707C13.0565 10.713 12.1369 9.76795 11.0184 9.76795C10.9539 9.76795 10.884 9.77354 10.8141 9.77913C9.81387 9.88539 8.97495 10.8697 8.97495 11.9322V17.7596H6.50134V11.8875C6.49597 10.7242 5.5818 9.77354 4.46329 9.77354C4.39876 9.77354 4.32885 9.77913 4.25895 9.78473C3.26412 9.89099 2.41986 10.8753 2.41986 11.9434V17.7596H0V11.8707C0 9.29818 2.01655 7.2066 4.49017 7.2066C5.72699 7.2066 6.90465 7.74347 7.7543 8.67741C8.60396 7.73788 9.78698 7.2066 11.0345 7.2066ZM30.9742 2.25166H28.5005V17.7708H30.9742V2.25166ZM33.2327 2.25166H35.7063V17.7708H33.2327V2.25166ZM40.4385 7.47503H37.9648V17.7652H40.4385V7.47503ZM50.5642 8.72775C51.4891 9.70643 52 10.9927 52 12.3572V13.5373H44.4769C44.8103 14.7788 45.8966 15.6513 47.1549 15.6513C48.139 15.6513 49.0262 15.1311 49.5371 14.2531L49.6393 14.0798L51.6827 15.1255L51.5644 15.3324C50.6341 16.9598 48.9295 17.9721 47.1119 17.9721H47.1065C45.7191 17.9721 44.4177 17.4017 43.4337 16.3671C42.4497 15.3324 41.9173 13.9679 41.9334 12.5251C41.9496 11.1102 42.4873 9.78473 43.4445 8.78368C44.4016 7.78262 45.6815 7.22337 47.0366 7.2066H47.1012C48.4078 7.2066 49.6339 7.74906 50.5642 8.72775ZM49.4995 11.4121C49.1445 10.316 48.1336 9.54425 47.0043 9.54425C45.8751 9.54425 44.8641 10.316 44.5146 11.4121H49.4995Z" fill="#111111" style="fill:#111111;fill:color(display-p3 0.0667 0.0667 0.0667);fill-opacity:1;"/></g><path d="M60.453 17.6438C58.5247 17.6438 57.0812 16.1151 57.0812 13.4197C57.0812 10.6925 58.5673 9.21165 60.4583 9.21165C61.9018 9.21165 62.5037 10.0799 62.7967 10.6712H62.8766V6.59091H64.8102V17.5H62.9139V16.2109H62.7967C62.4931 16.8075 61.8592 17.6438 60.453 17.6438ZM60.991 16.0618C62.2214 16.0618 62.9139 14.9964 62.9139 13.4091C62.9139 11.8217 62.2321 10.7937 60.991 10.7937C59.7072 10.7937 59.0467 11.8857 59.0467 13.4091C59.0467 14.9432 59.7179 16.0618 60.991 16.0618ZM70.1871 17.6598C67.7209 17.6598 66.2134 16.0245 66.2134 13.457C66.2134 10.9322 67.7422 9.21165 70.0859 9.21165C72.0994 9.21165 73.8253 10.4741 73.8253 13.3452V13.9364H68.1257C68.1417 15.3374 68.9673 16.1577 70.2138 16.1577C71.0447 16.1577 71.6839 15.7955 71.945 15.103L73.7454 15.3054C73.4045 16.7276 72.0941 17.6598 70.1871 17.6598ZM68.131 12.6367H71.9769C71.9663 11.5234 71.2205 10.7138 70.1126 10.7138C68.962 10.7138 68.1896 11.5927 68.131 12.6367ZM82.2305 9.31818L79.3167 17.5H77.1861L74.2724 9.31818H76.3285L78.2088 15.396H78.294L80.1797 9.31818H82.2305Z" fill="#111111" fill-opacity="0.6" style="fill:#111111;fill:color(display-p3 0.0667 0.0667 0.0667);fill-opacity:0.6;"/></g><defs><clipPath id="clip0_72_45914"><rect width="83" height="23" fill="white" style="fill:white;fill-opacity:1;"/></clipPath><clipPath id="clip1_72_45914"><rect width="52" height="16" fill="white" style="fill:white;fill-opacity:1;" transform="translate(0 2)"/></clipPath></defs></svg>