<?xml version="1.0" encoding="UTF-8"?>
<svg xmlns="http://www.w3.org/2000/svg" xmlns:xlink="http://www.w3.org/1999/xlink" width="24px" height="24px" viewBox="0 0 24 24" version="1.1">
<g id="surface1">
<path style=" stroke:none;fill-rule:nonzero;fill:rgb(0%,0%,0%);fill-opacity:1;" d="M 22.890625 1.40625 L 18.253906 1.40625 L 18.253906 0.707031 C 18.253906 0.316406 17.9375 0 17.546875 0 C 17.15625 0 16.839844 0.316406 16.839844 0.707031 L 16.839844 1.40625 L 12.707031 1.40625 L 12.707031 0.707031 C 12.707031 0.316406 12.390625 0 12 0 C 11.609375 0 11.292969 0.316406 11.292969 0.707031 L 11.292969 1.40625 L 7.335938 1.40625 L 7.335938 0.707031 C 7.335938 0.316406 7.019531 0 6.628906 0 C 6.238281 0 5.921875 0.316406 5.921875 0.707031 L 5.921875 1.40625 L 1.109375 1.40625 C 0.71875 1.40625 0.402344 1.722656 0.402344 2.113281 L 0.402344 18.097656 C 0.402344 18.488281 0.71875 18.804688 1.109375 18.804688 L 5.449219 18.804688 C 6.148438 21.777344 8.816406 24 12 24 C 15.183594 24 17.851562 21.777344 18.550781 18.804688 L 22.890625 18.804688 C 23.28125 18.804688 23.597656 18.488281 23.597656 18.097656 L 23.597656 2.113281 C 23.597656 1.722656 23.28125 1.40625 22.890625 1.40625 Z M 5.921875 2.820312 L 5.921875 3.460938 C 5.921875 3.851562 6.238281 4.167969 6.628906 4.167969 C 7.019531 4.167969 7.335938 3.851562 7.335938 3.460938 L 7.335938 2.820312 L 11.292969 2.820312 L 11.292969 3.460938 C 11.292969 3.851562 11.609375 4.167969 12 4.167969 C 12.390625 4.167969 12.707031 3.851562 12.707031 3.460938 L 12.707031 2.820312 L 16.839844 2.820312 L 16.839844 3.460938 C 16.839844 3.851562 17.15625 4.167969 17.546875 4.167969 C 17.9375 4.167969 18.253906 3.851562 18.253906 3.460938 L 18.253906 2.820312 L 22.183594 2.820312 L 22.183594 5.714844 L 1.816406 5.714844 L 1.816406 2.820312 Z M 12 22.585938 C 9.070312 22.585938 6.6875 20.203125 6.6875 17.273438 C 6.6875 14.34375 9.070312 11.960938 12 11.960938 C 14.929688 11.960938 17.3125 14.34375 17.3125 17.273438 C 17.3125 20.203125 14.929688 22.585938 12 22.585938 Z M 18.722656 17.390625 C 18.726562 17.351562 18.726562 17.3125 18.726562 17.273438 C 18.726562 13.5625 15.710938 10.546875 12 10.546875 C 8.289062 10.546875 5.273438 13.5625 5.273438 17.273438 C 5.273438 17.3125 5.273438 17.351562 5.277344 17.390625 L 1.816406 17.390625 L 1.816406 7.128906 L 22.183594 7.128906 L 22.183594 17.390625 Z M 18.722656 17.390625 "/>
<path style=" stroke:none;fill-rule:nonzero;fill:rgb(0%,0%,0%);fill-opacity:1;" d="M 12.707031 17.453125 L 12.707031 14.027344 C 12.707031 13.636719 12.390625 13.320312 12 13.320312 C 11.609375 13.320312 11.292969 13.636719 11.292969 14.027344 L 11.292969 17.746094 C 11.292969 17.933594 11.367188 18.113281 11.5 18.246094 L 13.125 19.871094 C 13.265625 20.007812 13.445312 20.078125 13.625 20.078125 C 13.808594 20.078125 13.988281 20.007812 14.125 19.871094 C 14.402344 19.59375 14.402344 19.148438 14.125 18.871094 Z M 12.707031 17.453125 "/>
</g>
</svg>
